<?xml version="1.0" encoding="UTF-8"?><svg id="Calque_2" xmlns="http://www.w3.org/2000/svg" viewBox="0 0 15.61 23.68"><g id="Calque_1-2"><path d="M6.1,0c.24,1.83,.09,3.5,.12,5.16,.03,1.67,0,3.34,.01,5.11,.44,0,.82,.12,1.08,0,.32-.16,.59-.5,.8-.82,.16-.24,.2-.55,.28-.84,.07-.26,.13-.53,.19-.78,.5,.07,.44,.44,.55,.69,.34,.81,.95,1.23,1.83,1.27,.95,.04,1.63-.39,2-1.24,.21-.49,.38-1.02,.45-1.55,.21-1.44,.05-2.85-.5-4.21-.29-.72-.8-1.1-1.59-1.08-.39,0-.78,.04-1.3,.07,.15,.34,.26,.59,.38,.82,.34,.65,.41,1.31,.15,2-.27,.7-.77,1.16-1.51,1.25-.77,.09-1.33-.32-1.69-.96-.47-.83-.5-1.71-.04-2.55C8.58,.02,11.62-.87,13.79,1.33c1.83,1.86,2.39,5.25,1.19,7.57-.31,.6-.75,1.18-1.26,1.61-1.09,.93-2.36,1.17-3.73,.64-.27-.11-.53-.25-.75-.36-.46,.08-.6,.41-.68,.75-.1,.44-.04,.58,.46,1.41,.25-.09,.52-.17,.77-.27,1.58-.66,3.15-.35,4.33,.87,.74,.77,1.2,1.7,1.37,2.74,.3,1.81,.05,3.54-.94,5.12-.23,.37-.52,.73-.83,1.04-2.21,2.21-5.29,1.14-6.45-1.12-.44-.86-.37-1.72,.11-2.54,.35-.6,.9-.93,1.6-.88,.69,.04,1.21,.42,1.5,1.05,.25,.55,.35,1.14,.11,1.72-.15,.36-.35,.7-.56,1.11,.72,.48,1.47,.3,2.19,.02,.2-.08,.4-.31,.5-.52,.96-1.96,1.07-3.97,.3-6.01-.33-.86-1-1.34-1.94-1.35-.93,0-1.59,.44-1.95,1.31-.09,.21-.17,.43-.24,.61-.38,.05-.37-.18-.42-.35-.15-.47-.23-.97-.45-1.4-.32-.64-.87-.9-1.64-.65-.27,1.13-.1,2.27-.13,3.38-.03,1.08,0,2.17,0,3.25-.01,1.13,.05,2.26-.05,3.35-.8,.26-.97,.2-1-.32-.02-.34-.02-.69-.02-1.04,0-6.81,0-13.61,0-20.42,0-.49,.03-.97,.05-1.54l.89-.12Z"/><path d="M.13,.06H3.49c.35,.54,.21,1.09,.21,1.62,.01,5.17,0,10.33,0,15.5,0,1.72,0,3.44,0,5.17,0,.38-.04,.77-.06,1.19-.63,.22-1.22,.12-1.8,.14-.54,.01-1.07,0-1.54,0-.42-.59-.28-1.15-.28-1.67-.01-5.76,0-11.51,0-17.27C.01,3.55,0,2.37,.02,1.19c0-.34,.06-.67,.11-1.13Z"/></g></svg>