<?xml version="1.0" encoding="UTF-8"?><svg id="Calque_2" xmlns="http://www.w3.org/2000/svg" viewBox="0 0 16.28 25.94"><g id="Calque_1-2"><path d="M7.33,0l1.1,.28c.03,.42,.06,.81,.1,1.19,.06,.54,.09,1.08,.2,1.6,.25,1.16,.86,2.06,1.92,2.67,1.25,.72,2.33,1.64,3.31,2.7,.77,.84,1.42,1.76,1.85,2.83,.65,1.63,.66,3.28-.06,4.88-.69,1.54-1.71,2.87-2.94,4.04-.23,.22-.56,.32-1.02,.58,.05-.43,.02-.68,.12-.86,.24-.43,.57-.8,.83-1.22,.88-1.4,1.46-2.89,1.43-4.58-.03-1.49-.5-2.79-1.61-3.84-.72-.68-1.47-1.31-2.36-1.76-.71-.36-.82-.37-1.84-.32-.21,.47-.12,.96-.12,1.45,0,3.64-.05,7.29,.02,10.93,.03,1.58-.59,2.75-1.72,3.73-.83,.73-1.79,1.22-2.85,1.49-.78,.2-1.56,.22-2.31-.14-1.11-.54-1.6-1.65-1.25-2.82,.25-.83,.73-1.51,1.37-2.06,1.27-1.1,2.73-1.74,4.45-1.66,.39,.02,.77,0,1.21,0,.24-1.29,.1-2.57,.12-3.84,.03-1.23,.02-2.46,.02-3.69,0-1.28,0-2.56,0-3.84,0-1.23,.01-2.46,.02-3.69,0-1.27,.01-2.54,.02-4.04Z"/></g></svg>