<?xml version="1.0" encoding="UTF-8"?>
<svg xmlns="http://www.w3.org/2000/svg" viewBox="0 0 1191.33 1939.29">
  <path fill="#000" d="m662.19,1302.64v-28.43c0-316.77-.04-633.54.22-950.31,0-9.01,1.99-25.21,5.24-25.8,15.41-2.76,31.59-1.53,47.45-.82,1.51.07,3.53,6.23,3.94,9.73.67,5.69.23,11.52.23,17.29,0,349.47-.94,698.95.67,1048.41.4,86.95-35.33,152.09-103.17,201.07-67.84,48.97-143.68,73.03-227.91,57.59-86.45-15.84-125.56-87.81-91.09-168.43,32.95-77.06,95.32-123.89,170.68-154.25,62.15-25.04,126.04-32.33,193.75-6.05Z"/>
</svg>