<?xml version="1.0" encoding="UTF-8"?><svg id="Calque_2" xmlns="http://www.w3.org/2000/svg" viewBox="0 0 10.37 7.51"><g id="Calque_1-2"><path d="M5.22,7.51c-.99-.02-1.98-.1-2.86-.58-.55-.3-1.11-.66-1.54-1.11-1.14-1.21-1.09-2.9,.03-4.13C1.44,1.04,2.16,.64,2.96,.37c1.44-.48,2.91-.51,4.34-.01,.64,.22,1.28,.55,1.8,.97,1.67,1.34,1.68,3.41,.08,4.84-.96,.86-2.35,1.33-3.96,1.34Zm-.08-6.08c-.29,.02-.59,.01-.88,.06-.84,.13-1.61,.42-2.24,1.01-.82,.77-.82,1.81,0,2.57,.18,.17,.38,.32,.59,.43,1.68,.89,3.38,.9,5.07,.03,.34-.17,.65-.45,.9-.74,.52-.61,.53-1.42,0-2.01-.32-.35-.73-.66-1.15-.88-.7-.37-1.48-.51-2.28-.47Z"/></g></svg>