<?xml version="1.0" encoding="UTF-8"?><svg id="Calque_2" xmlns="http://www.w3.org/2000/svg" viewBox="0 0 13.13 12.75"><g id="Calque_1-2"><g><path d="M2.38,2.17c.27,.22,.55,.41,.78,.65,.76,.77,.73,1.92-.05,2.62-.76,.69-1.94,.59-2.62-.25C.06,4.68-.09,4.09,.05,3.41,.51,1.12,3.09-.48,5.37,.13c2.63,.7,4.04,2.99,3.56,5.8-.2,1.18-.64,2.27-1.33,3.26-1.01,1.44-2.27,2.59-3.85,3.36-.62,.31-1.13,.26-1.16-.06-.05-.52,.4-.63,.73-.8,2.68-1.34,3.61-3.75,3.97-6.49,.11-.81-.16-1.55-.6-2.24-1.09-1.69-2.51-1.97-4.31-.78Z"/><path d="M11.91,8.81c-.67,0-1.18-.57-1.15-1.26,.03-.65,.47-1.1,1.12-1.12,.68-.02,1.25,.5,1.25,1.16,0,.65-.57,1.22-1.22,1.21Z"/><path d="M11.89,1.37c.67-.02,1.25,.53,1.24,1.18,0,.64-.6,1.23-1.23,1.21-.59-.01-1.1-.52-1.14-1.13-.04-.72,.43-1.24,1.13-1.26Z"/></g></g></svg>