<?xml version="1.0" encoding="UTF-8"?><svg id="Calque_2" xmlns="http://www.w3.org/2000/svg" viewBox="0 0 18.73 23.87"><g id="Calque_1-2"><path d="M16.44,12.24c.06-.47,.05-.71,.13-.93,.15-.41,.37-.8,.54-1.21,.73-1.79,.57-3.56-.16-5.31-.08-.18-.17-.36-.27-.52-.67-1.08-1.43-1.28-2.46-.56-.56,.39-1.04,.9-1.57,1.34-.53,.44-1.05,.89-1.63,1.26-.85,.54-1.78,.84-2.81,.55-.13-.04-.28,.01-.52,.03-.02,.49-.05,.97-.05,1.45,0,3.4-.03,6.8,.01,10.2,.02,1.3-.25,2.43-1.16,3.38-1.03,1.06-2.25,1.76-3.72,1.94-.93,.11-1.76-.18-2.33-.98-.58-.81-.52-1.69-.08-2.52,.89-1.68,2.32-2.66,4.19-2.93,.62-.09,1.27-.01,2.02-.01,.05-.3,.15-.62,.16-.93,.02-2.37,.02-4.73,.03-7.1,0-2.61,0-5.22,.02-7.83,0-.48-.11-.98,.16-1.44,.78-.07,.89-.02,.98,.49,.05,.29,.05,.59,.11,.88,.15,.66,.58,.92,1.2,.69,.45-.17,.86-.45,1.28-.7,.64-.37,1.23-.82,1.9-1.12,1.4-.63,2.71-.37,3.83,.65,.43,.39,.83,.86,1.13,1.35,1.26,2.06,1.7,4.29,1.17,6.66-.24,1.07-.74,2.03-1.46,2.87-.09,.1-.24,.14-.62,.36Z"/></g></svg>