<?xml version="1.0" encoding="UTF-8"?><svg id="Calque_2" xmlns="http://www.w3.org/2000/svg" viewBox="0 0 14.47 15.1"><g id="Calque_1-2"><path d="M7.2,6.14c.75-.67,1.08-1.45,1.26-2.26,.26-1.17,.95-1.92,2.01-2.37,1.22-.52,2.44-1.03,3.57-1.52,.48,.21,.47,.52,.37,.8-.49,1.29-.98,2.58-1.54,3.84-.35,.8-1.02,1.3-1.88,1.54-.9,.25-1.72,.65-2.42,1.39,.59,.72,1.35,1.05,2.13,1.34,.41,.15,.87,.27,1.2,.54,.41,.33,.8,.76,1.02,1.23,.54,1.16,.99,2.36,1.45,3.56,.08,.21,.05,.47,.06,.63-.27,.31-.52,.24-.74,.15-1.18-.49-2.37-.98-3.53-1.51-.85-.39-1.42-1.06-1.64-1.98-.17-.73-.45-1.41-.87-2.02-.1-.15-.27-.26-.43-.42-.61,.63-.95,1.33-1.12,2.1-.29,1.27-1.04,2.08-2.23,2.55-.96,.38-1.9,.82-2.85,1.22-.32,.14-.33,.12-1.01-.08,.07-.27,.11-.56,.21-.83,.39-1.01,.81-2.01,1.2-3.02,.4-1.03,1.07-1.74,2.16-2.05,.85-.24,1.65-.61,2.24-1.25,.03-.44-.25-.59-.5-.72-.61-.31-1.23-.63-1.87-.86-.84-.3-1.49-.8-1.84-1.6C1.06,3.29,.56,2.01,.07,.72c-.06-.15-.01-.42,.09-.53,.1-.11,.38-.16,.52-.1,1.27,.53,2.54,1.07,3.79,1.65,.86,.4,1.35,1.14,1.56,2.05,.2,.83,.55,1.57,1.17,2.36Z"/></g></svg>