<?xml version="1.0" encoding="UTF-8"?>
<svg xmlns="http://www.w3.org/2000/svg" xmlns:xlink="http://www.w3.org/1999/xlink" width="30px" height="30px" viewBox="0 0 30 30" version="1.1">
<g id="surface1">
<path style=" stroke:none;fill-rule:nonzero;fill:rgb(0%,0%,0%);fill-opacity:1;" d="M 26.53125 0.472656 C 24.261719 0.9375 22.359375 1.324219 16.5 2.519531 C 14.816406 2.863281 12.929688 3.25 12.304688 3.375 C 11.679688 3.5 10.621094 3.71875 9.949219 3.855469 C 9.277344 3.992188 8.703125 4.109375 8.664062 4.117188 L 8.601562 4.128906 L 8.601562 12.953125 C 8.601562 21.570312 8.601562 21.777344 8.558594 21.761719 C 8.429688 21.722656 7.835938 21.652344 7.5 21.640625 C 6.089844 21.589844 4.585938 22.011719 3.398438 22.796875 C 2.539062 23.363281 1.820312 24.179688 1.464844 24.976562 C 1.050781 25.917969 1.042969 26.882812 1.445312 27.746094 C 1.65625 28.210938 2.128906 28.753906 2.601562 29.09375 C 3.195312 29.515625 3.996094 29.8125 4.886719 29.945312 C 5.316406 30.007812 6.222656 30.003906 6.679688 29.933594 C 7.785156 29.761719 8.757812 29.398438 9.613281 28.832031 C 10.769531 28.0625 11.527344 27.039062 11.792969 25.878906 L 11.847656 25.652344 L 11.851562 17.386719 L 11.859375 9.117188 L 11.914062 9.105469 C 11.992188 9.085938 12.34375 9.015625 14.953125 8.484375 C 16.285156 8.210938 18.179688 7.824219 19.160156 7.625 C 20.140625 7.425781 21.480469 7.152344 22.136719 7.019531 C 22.796875 6.886719 23.828125 6.675781 24.429688 6.554688 C 25.035156 6.429688 25.542969 6.328125 25.5625 6.328125 C 25.589844 6.328125 25.59375 7.128906 25.59375 12.324219 L 25.59375 18.320312 L 25.367188 18.277344 C 24.960938 18.207031 24.558594 18.179688 24.070312 18.195312 C 22.800781 18.230469 21.566406 18.605469 20.511719 19.269531 C 19.832031 19.699219 19.1875 20.320312 18.789062 20.933594 C 18.628906 21.179688 18.402344 21.644531 18.320312 21.898438 C 18.050781 22.714844 18.097656 23.566406 18.441406 24.296875 C 19.007812 25.480469 20.253906 26.269531 21.914062 26.5 C 22.3125 26.554688 23.148438 26.554688 23.554688 26.5 C 24.4375 26.378906 25.152344 26.164062 25.902344 25.789062 C 26.511719 25.484375 26.996094 25.144531 27.453125 24.703125 C 28.148438 24.039062 28.585938 23.292969 28.785156 22.449219 L 28.839844 22.230469 L 28.84375 11.113281 C 28.847656 5 28.84375 0 28.835938 0.00390625 C 28.824219 0.00390625 27.789062 0.214844 26.53125 0.472656 Z M 26.53125 0.472656 "/>
</g>
</svg>
