<?xml version="1.0" encoding="UTF-8"?><svg id="Calque_2" xmlns="http://www.w3.org/2000/svg" viewBox="0 0 11.95 8.99"><g id="Calque_1-2"><path d="M11.83,7.33c-.15-.04-.36-.05-.39-.12-.13-.37-.21-.75-.32-1.12-.47-1.62-1.42-2.91-2.8-3.87-1.67-1.16-3.12-1.15-4.77,.05C2.03,3.38,1.03,4.86,.69,6.74c-.06,.35-.07,.35-.49,.59-.33-.46-.17-.96-.08-1.42C.53,3.97,1.45,2.32,3.03,1.08c1.83-1.43,4.02-1.45,5.86-.04,1.68,1.29,2.61,3.03,3.01,5.08,.05,.24,.05,.49,.05,.74,0,.14-.06,.28-.11,.46Z"/><path d="M6.05,6.62c.68,.03,1.19,.6,1.13,1.27-.05,.61-.56,1.09-1.17,1.1-.69,0-1.21-.52-1.2-1.21,.01-.7,.53-1.19,1.24-1.16Z"/></g></svg>