<?xml version="1.0" encoding="UTF-8"?><svg id="Calque_2" xmlns="http://www.w3.org/2000/svg" viewBox="0 0 5.43 16.31"><g id="Calque_1-2"><path d="M2.79,10.45c-.54-1.39-.86-1.85-2.57-3.73-.03-.51,.34-.78,.65-1.1,.47-.5,.93-1.02,1.37-1.55,.53-.64,.62-1.32,.11-2.03-.34-.48-.69-.96-1-1.46-.07-.11,.02-.36,.1-.5,.05-.07,.3-.11,.39-.05,.36,.25,.76,.48,1.03,.81,.84,1.03,1.63,2.1,2.42,3.17,.08,.11,.08,.28,.14,.48-.17,.21-.35,.43-.53,.65-.34,.42-.7,.83-.99,1.28-.83,1.3-.77,2.6,.14,3.84,.41,.56,.84,1.09,1.24,1.66,.24,.34,.16,.49-.39,.91-.44-.2-.86-.45-1.33-.59-1.13-.34-1.6,.29-1.56,1.29,.02,.42,.24,.85,.41,1.25,.15,.36,.38,.69,.53,1.05,.04,.09-.05,.29-.14,.37-.09,.08-.31,.13-.39,.08-1-.67-1.83-1.52-2.29-2.63-.17-.43-.15-.97-.09-1.45,.11-.92,.7-1.5,1.62-1.67,.33-.06,.68-.05,1.13-.08Z"/></g></svg>